<svg xmlns="http://www.w3.org/2000/svg" width="1100" height="1180" viewBox="0 0 1100 1180">
<rect width="100%" height="100%" fill="#f3f4f6"/>
<text x="40" y="42" font-size="24" font-family="monospace" fill="#24292f">F1TENTH baseline run summary</text>
<rect x="40" y="70" width="1020" height="360" fill="#ffffff" stroke="#d0d7de" stroke-width="1"/>
<text x="52" y="94" font-size="16" font-family="monospace" fill="#24292f">Trajectory vs Centerline</text>
<rect x="100" y="106" width="930" height="284" fill="#f6f8fa" stroke="#d0d7de" stroke-width="1"/>
<polyline fill="none" stroke="#1f883d" stroke-width="2" points="965.86,370.41 965.86,370.40 965.83,370.29 965.77,370.04 965.68,369.64 965.56,369.11 965.40,368.45 965.22,367.66 965.01,366.76 964.78,365.75 964.52,364.64 964.23,363.42 963.93,362.11 963.60,360.71 963.26,359.21 962.89,357.64 962.50,355.99 962.10,354.27 961.69,352.48 961.25,350.62 960.24,348.68 958.85,346.69 957.42,344.65 955.96,342.56 954.46,340.41 952.92,338.21 951.35,335.96 949.75,333.67 948.12,331.34 946.13,328.85 943.32,326.44 940.46,323.99 937.57,321.51 934.63,318.99 931.66,316.44 928.65,313.86 925.61,311.25 922.08,308.43 917.74,305.77 913.36,303.10 908.94,300.40 904.49,297.68 900.00,294.93 895.48,292.17 890.93,289.39 884.92,286.35 879.02,283.55 873.08,280.73 867.11,277.90 861.10,275.05 855.07,272.19 849.02,269.32 841.33,266.14 833.90,263.27 826.44,260.39 818.95,257.49 811.44,254.59 803.91,251.68 796.35,248.76 786.71,245.50 777.79,242.59 768.84,239.67 759.87,236.75 750.87,233.82 741.86,230.88 731.49,227.56 721.14,224.65 710.77,221.74 700.38,218.82 689.97,215.89 679.55,212.96 669.10,210.03 656.64,206.70 644.90,203.81 633.14,200.91 621.36,198.00 609.57,195.10 597.76,192.18 585.94,189.27 571.46,185.97 558.38,183.11 545.29,180.24 532.19,177.36 519.07,174.49 505.94,171.61 490.78,168.31 476.44,165.49 462.09,162.66 447.73,159.83 433.36,157.00 418.98,154.17 404.59,151.34 387.65,148.11 372.10,145.34 356.55,142.56 340.98,139.79 325.41,137.01 309.84,134.23 294.25,131.45 275.71,128.30 259.02,125.59"/>
<polyline fill="none" stroke="#0969da" stroke-width="2" points="965.86,370.41 965.86,370.40 965.86,370.29 965.86,370.04 965.86,369.64 965.86,369.11 965.85,368.45 965.84,367.66 965.81,366.76 965.76,365.75 965.69,364.64 965.58,363.42 965.42,362.11 965.23,360.70 964.97,359.21 964.66,357.64 963.85,355.99 962.12,354.27 959.95,352.48 957.55,350.63 954.86,348.72 951.83,346.74 948.61,344.72 945.14,342.64 941.59,340.50 938.03,338.32 934.32,336.09 930.50,333.81 926.48,331.50 922.35,329.14 917.93,326.75 913.16,324.32 908.24,321.86 903.27,319.37 898.13,316.85 892.88,314.30 887.41,311.72 881.81,309.11 875.99,306.49 870.03,303.84 863.84,301.17 857.50,298.48 850.93,295.77 844.22,293.05 837.27,290.31 830.18,287.55 822.85,284.78 815.37,282.00 807.66,279.21 799.80,276.41 791.70,273.59 783.46,270.77 774.97,267.94 766.34,265.10 757.47,262.25 748.45,259.40 739.20,256.54 729.79,253.68 720.15,250.82 710.35,247.95 700.33,245.07 690.22,242.20 680.11,239.31 669.80,236.42 659.17,233.54 648.34,230.65 637.26,227.77 626.00,224.89 614.51,222.01 602.93,219.13 591.34,216.25 579.56,213.36 567.47,210.48 555.18,207.61 542.63,204.74 529.99,201.88 517.34,199.01 504.56,196.14 491.69,193.27 478.59,190.40 465.15,187.55 451.50,184.71 437.60,181.87 423.59,179.04 409.58,176.21 395.43,173.37 381.21,170.54 366.75,167.72 351.96,164.92 337.04,162.12 322.09,159.32 306.99,156.52 291.81,153.73 276.45,150.94 261.00,148.16 245.29,145.39 229.27,142.64 213.10,139.90 196.90,137.15 180.56,134.42 164.14,131.68"/>
<text x="100" y="418" font-size="12" font-family="monospace" fill="#57606a">x [2.73, 3.02] m</text>
<text x="48" y="118" font-size="12" font-family="monospace" fill="#57606a">y [-0.06, 0.82] m</text>
<rect x="40" y="460" width="1020" height="280" fill="#ffffff" stroke="#d0d7de" stroke-width="1"/>
<text x="52" y="484" font-size="16" font-family="monospace" fill="#24292f">Cross-track and Heading Error</text>
<rect x="100" y="496" width="930" height="204" fill="#f6f8fa" stroke="#d0d7de" stroke-width="1"/>
<line x1="100" y1="557.99" x2="1030" y2="557.99" stroke="#8c959f" stroke-width="1" stroke-dasharray="4 4"/>
<polyline fill="none" stroke="#d1242f" stroke-width="2" points="100.00,557.99 109.30,557.99 118.60,558.00 127.90,558.03 137.20,558.07 146.50,558.12 155.80,558.18 165.10,558.25 174.40,558.33 183.70,558.41 193.00,558.49 202.30,558.56 211.60,558.63 220.90,558.68 230.20,558.72 239.50,558.74 248.80,558.56 258.10,558.00 267.40,557.25 276.70,556.41 286.00,555.69 295.30,554.99 304.60,554.22 313.90,553.36 323.20,552.49 332.50,551.62 341.80,550.71 351.10,549.76 360.40,548.74 369.70,547.78 379.00,547.09 388.30,546.27 397.60,545.40 406.90,544.52 416.20,543.59 425.50,542.63 434.80,541.59 444.10,540.58 453.40,539.94 462.70,539.25 472.00,538.49 481.30,537.67 490.60,536.77 499.90,535.82 509.20,534.79 518.50,534.11 527.80,533.49 537.10,532.82 546.40,532.06 555.70,531.25 565.00,530.34 574.30,529.39 583.60,528.72 592.90,528.19 602.20,527.57 611.50,526.89 620.80,526.12 630.10,525.30 639.40,524.38 648.70,523.86 658.00,523.37 667.30,522.85 676.60,522.34 685.90,521.75 695.20,521.03 704.50,520.26 713.80,519.92 723.10,519.52 732.40,519.02 741.70,518.49 751.00,517.96 760.30,517.36 769.60,516.82 778.90,516.57 788.20,516.21 797.50,515.81 806.80,515.41 816.10,514.96 825.40,514.48 834.70,514.29 844.00,514.12 853.30,513.86 862.60,513.48 871.90,513.06 881.20,512.65 890.50,512.18 899.80,512.24 909.10,512.18 918.40,511.98 927.70,511.71 937.00,511.43 946.30,511.09 955.60,510.88 964.90,510.98 974.20,511.03 983.50,510.96 992.80,510.73 1002.10,510.44 1011.40,510.14 1020.70,510.07 1030.00,510.20"/>
<polyline fill="none" stroke="#8250df" stroke-width="2" points="100.00,590.09 109.30,590.09 118.60,590.09 127.90,590.03 137.20,589.79 146.50,589.25 155.80,588.30 165.10,586.86 174.40,584.84 183.70,582.14 193.00,579.17 202.30,575.92 211.60,572.42 220.90,568.68 230.20,564.70 239.50,560.50 248.80,556.16 258.10,552.26 267.40,547.66 276.70,543.08 286.00,601.89 295.30,595.94 304.60,590.05 313.90,583.67 323.20,577.65 332.50,571.98 341.80,565.97 351.10,560.15 360.40,553.94 369.70,611.78 379.00,605.08 388.30,597.74 397.60,590.75 406.90,584.18 416.20,577.34 425.50,570.72 434.80,563.76 444.10,620.48 453.40,613.39 462.70,606.49 472.00,599.26 481.30,592.23 490.60,584.88 499.90,577.73 509.20,570.27 518.50,625.96 527.80,618.39 537.10,611.05 546.40,603.39 555.70,595.96 565.00,588.22 574.30,580.71 583.60,635.16 592.90,627.57 602.20,619.69 611.50,612.04 620.80,604.10 630.10,596.39 639.40,588.39 648.70,642.07 658.00,634.02 667.30,626.53 676.60,619.68 685.90,612.37 695.20,604.43 704.50,657.14 713.80,648.99 723.10,641.07 732.40,632.87 741.70,625.23 751.00,618.24 760.30,610.81 769.60,662.26 778.90,654.31 788.20,646.04 797.50,638.33 806.80,631.28 816.10,624.11 825.40,617.25 834.70,668.22 844.00,660.10 853.30,652.09 862.60,643.75 871.90,635.96 881.20,628.85 890.50,678.86 899.80,671.94 909.10,664.44 918.40,656.27 927.70,648.52 937.00,641.40 946.30,634.16 955.60,683.23 964.90,676.04 974.20,669.11 983.50,661.60 992.80,653.39 1002.10,645.61 1011.40,638.46 1020.70,685.93 1030.00,678.96"/>
<line x1="104" y1="508" x2="122" y2="508" stroke="#d1242f" stroke-width="3"/>
<text x="128" y="512" font-size="12" font-family="monospace" fill="#24292f">cross_track_error [m]</text>
<line x1="104" y1="526" x2="122" y2="526" stroke="#8250df" stroke-width="3"/>
<text x="128" y="530" font-size="12" font-family="monospace" fill="#24292f">heading_error [rad]</text>
<text x="100" y="728" font-size="12" font-family="monospace" fill="#57606a">time [0.00, 1.00] s</text>
<text x="48" y="508" font-size="12" font-family="monospace" fill="#57606a">y [-0.105, 0.046]</text>
<rect x="40" y="770" width="1020" height="280" fill="#ffffff" stroke="#d0d7de" stroke-width="1"/>
<text x="52" y="794" font-size="16" font-family="monospace" fill="#24292f">Control and Velocity</text>
<rect x="100" y="806" width="930" height="204" fill="#f6f8fa" stroke="#d0d7de" stroke-width="1"/>
<line x1="100" y1="995.93" x2="1030" y2="995.93" stroke="#8c959f" stroke-width="1" stroke-dasharray="4 4"/>
<polyline fill="none" stroke="#1a7f37" stroke-width="2" points="100.00,995.93 109.30,820.07 118.60,820.07 127.90,820.07 137.20,820.07 146.50,820.07 155.80,820.07 165.10,820.07 174.40,820.07 183.70,820.07 193.00,820.07 202.30,820.07 211.60,820.07 220.90,820.07 230.20,820.07 239.50,820.07 248.80,820.07 258.10,820.07 267.40,820.07 276.70,820.07 286.00,820.07 295.30,820.07 304.60,820.07 313.90,820.07 323.20,820.07 332.50,820.07 341.80,820.07 351.10,820.07 360.40,820.07 369.70,820.07 379.00,820.07 388.30,820.07 397.60,820.07 406.90,820.07 416.20,820.07 425.50,820.07 434.80,820.07 444.10,820.07 453.40,820.07 462.70,820.07 472.00,820.07 481.30,820.07 490.60,820.07 499.90,820.07 509.20,820.07 518.50,820.07 527.80,820.07 537.10,820.07 546.40,820.07 555.70,820.07 565.00,820.07 574.30,820.07 583.60,820.07 592.90,820.07 602.20,820.07 611.50,820.07 620.80,820.07 630.10,820.07 639.40,820.07 648.70,820.07 658.00,820.07 667.30,820.07 676.60,820.07 685.90,820.07 695.20,820.07 704.50,820.07 713.80,820.07 723.10,820.07 732.40,820.07 741.70,820.07 751.00,820.07 760.30,820.07 769.60,820.07 778.90,820.07 788.20,820.07 797.50,820.07 806.80,820.07 816.10,820.07 825.40,820.07 834.70,820.07 844.00,820.07 853.30,820.07 862.60,820.07 871.90,820.07 881.20,820.07 890.50,820.07 899.80,820.07 909.10,820.07 918.40,820.07 927.70,820.07 937.00,820.07 946.30,820.07 955.60,820.07 964.90,820.07 974.20,820.07 983.50,820.07 992.80,820.07 1002.10,820.07 1011.40,820.07 1020.70,820.07 1030.00,820.07"/>
<polyline fill="none" stroke="#0969da" stroke-width="2" points="100.00,995.93 109.30,957.56 118.60,957.56 127.90,957.56 137.20,957.56 146.50,957.58 155.80,957.64 165.10,957.72 174.40,957.86 183.70,958.05 193.00,958.31 202.30,958.58 211.60,958.89 220.90,959.21 230.20,959.56 239.50,959.92 248.80,960.31 258.10,954.62 267.40,955.07 276.70,955.60 286.00,956.14 295.30,956.76 304.60,957.44 313.90,958.13 323.20,958.86 332.50,959.55 341.80,960.21 351.10,960.89 360.40,955.41 369.70,956.14 379.00,956.85 388.30,957.63 397.60,958.48 406.90,959.29 416.20,960.04 425.50,960.83 434.80,961.58 444.10,956.20 453.40,957.00 462.70,957.83 472.00,958.63 481.30,959.47 490.60,960.28 499.90,961.12 509.20,961.93 518.50,956.57 527.80,957.43 537.10,958.32 546.40,959.18 555.70,960.06 565.00,960.92 574.30,961.80 583.60,962.66 592.90,957.33 602.20,958.23 611.50,959.15 620.80,960.05 630.10,960.97 639.40,961.86 648.70,962.77 658.00,963.65 667.30,958.37 676.60,959.26 685.90,960.08 695.20,960.93 704.50,961.84 713.80,962.74 723.10,963.67 732.40,964.57 741.70,959.33 751.00,960.24 760.30,961.07 769.60,961.93 778.90,962.86 788.20,963.77 797.50,964.71 806.80,965.59 816.10,960.27 825.40,961.12 834.70,961.93 844.00,962.79 853.30,963.72 862.60,964.64 871.90,965.58 881.20,960.35 890.50,961.20 899.80,962.06 909.10,962.88 918.40,963.75 927.70,964.68 937.00,965.57 946.30,966.39 955.60,961.14 964.90,961.97 974.20,962.82 983.50,963.63 992.80,964.51 1002.10,965.45 1011.40,966.34 1020.70,967.15 1030.00,961.97"/>
<polyline fill="none" stroke="#bf8700" stroke-width="2" points="100.00,995.93 109.30,994.26 118.60,985.98 127.90,978.09 137.20,970.57 146.50,963.42 155.80,956.60 165.10,950.11 174.40,943.93 183.70,938.04 193.00,932.43 202.30,927.08 211.60,922.00 220.90,917.15 230.20,912.53 239.50,908.14 248.80,903.95 258.10,899.96 267.40,896.16 276.70,892.54 286.00,889.10 295.30,885.81 304.60,882.69 313.90,879.71 323.20,876.87 332.50,874.17 341.80,871.60 351.10,869.15 360.40,866.82 369.70,864.59 379.00,862.48 388.30,860.46 397.60,858.54 406.90,856.71 416.20,854.97 425.50,853.31 434.80,851.73 444.10,850.22 453.40,848.79 462.70,847.42 472.00,846.12 481.30,844.88 490.60,843.70 499.90,842.58 509.20,841.51 518.50,840.49 527.80,839.52 537.10,838.59 546.40,837.71 555.70,836.87 565.00,836.08 574.30,835.31 583.60,834.59 592.90,833.90 602.20,833.24 611.50,832.61 620.80,832.02 630.10,831.45 639.40,830.91 648.70,830.39 658.00,829.90 667.30,829.43 676.60,828.99 685.90,828.57 695.20,828.16 704.50,827.78 713.80,827.41 723.10,827.06 732.40,826.73 741.70,826.41 751.00,826.11 760.30,825.82 769.60,825.55 778.90,825.29 788.20,825.04 797.50,824.80 806.80,824.58 816.10,824.36 825.40,824.16 834.70,823.97 844.00,823.78 853.30,823.60 862.60,823.44 871.90,823.28 881.20,823.12 890.50,822.98 899.80,822.84 909.10,822.71 918.40,822.58 927.70,822.46 937.00,822.35 946.30,822.24 955.60,822.14 964.90,822.04 974.20,821.95 983.50,821.86 992.80,821.77 1002.10,821.69 1011.40,821.61 1020.70,821.54 1030.00,821.47"/>
<line x1="104" y1="818" x2="122" y2="818" stroke="#1a7f37" stroke-width="3"/>
<text x="128" y="822" font-size="12" font-family="monospace" fill="#24292f">speed_cmd [m/s]</text>
<line x1="104" y1="836" x2="122" y2="836" stroke="#0969da" stroke-width="3"/>
<text x="128" y="840" font-size="12" font-family="monospace" fill="#24292f">steer_cmd [rad]</text>
<line x1="104" y1="854" x2="122" y2="854" stroke="#bf8700" stroke-width="3"/>
<text x="128" y="858" font-size="12" font-family="monospace" fill="#24292f">linear_vel_x [m/s]</text>
<text x="100" y="1038" font-size="12" font-family="monospace" fill="#57606a">time [0.00, 1.00] s</text>
<text x="48" y="818" font-size="12" font-family="monospace" fill="#57606a">y [-0.080, 1.080]</text>
</svg>